<svg width="20" height="20" viewBox="0 0 20 20" fill="none" xmlns="http://www.w3.org/2000/svg">
<rect width="20" height="20" rx="10" fill="#D9D9D9"/>
<path d="M13.75 9.85V11.5C13.75 14.3995 11.3995 16.75 8.5 16.75C5.6005 16.75 3.25 14.3995 3.25 11.5V9.85C3.25 9.51863 3.51863 9.25 3.85 9.25H13.15C13.4814 9.25 13.75 9.51863 13.75 9.85Z" stroke="#403F3D" stroke-width="1.5" stroke-linecap="round" stroke-linejoin="round"/>
<path d="M10 7.75C10 7 10.5357 6.25 11.6071 6.25V6.25C12.7906 6.25 13.75 5.29061 13.75 4.10714V3.625" stroke="#403F3D" stroke-width="1.5" stroke-linecap="round" stroke-linejoin="round"/>
<path d="M7 7.75V7.375C7 6.13236 8.00736 5.125 9.25 5.125V5.125C10.0784 5.125 10.75 4.45343 10.75 3.625V3.25" stroke="#403F3D" stroke-width="1.5" stroke-linecap="round" stroke-linejoin="round"/>
<path d="M13 9.25H14.875C15.9105 9.25 16.75 10.0895 16.75 11.125C16.75 12.1605 15.9105 13 14.875 13H13.75" stroke="#403F3D" stroke-width="1.5" stroke-linecap="round" stroke-linejoin="round"/>
</svg>
